mtllib materials.mtl
v 0.0005165786 0.0330832 -0.1274781
v -0.06337202 0.03073066 -0.1110902
v -0.07356516 0.02452004 -0.1295702
v 0.0009715557 0.0272646 -0.1486893
v -0.08058909 0.008594334 -0.1430246
v 0.001742586 0.01162595 -0.1641433
v -0.0825617 -0.01277912 -0.1478482
v 0.002623081 -0.009642482 -0.1696987
v -0.07895455 -0.03387332 -0.1427485
v 0.00337711 -0.03084171 -0.1638672
v -0.07073405 -0.04903615 -0.1290922
v 0.003802642 -0.04629153 -0.1482114
v -0.06010297 -0.05420464 -0.1105382
v 0.00378564 -0.05185211 -0.1269261
v -0.04939723 -0.05936337 -0.0890463
v 0.004282326 -0.05906349 -0.09884924
v -0.0273543 -0.04748064 -0.03979146
v -0.03578423 -0.004211903 -0.02158362
v 0.006808177 -0.002643585 -0.03250885
v -0.03186968 0.01655591 -0.02477187
v 0.006054133 0.0185557 -0.03834033
v -0.05274093 0.02556217 -0.09253627
v 0.0004995763 0.02752262 -0.1061928
v -0.1105211 0.02921593 -0.06493264
v -0.1285724 0.02275276 -0.07571977
v -0.1413489 0.006642282 -0.08354253
v -0.1454272 -0.01479882 -0.08630484
v -0.1397144 -0.03582537 -0.08326656
v -0.1257413 -0.05080336 -0.07524174
v -0.1072521 -0.05571938 -0.06438071
v -0.09296852 -0.05875123 -0.04978031
v -0.03745736 -0.04780525 -0.02990091
v -0.09203184 0.02429986 -0.05407161
v -0.1282971 0.02894479 -0.001373351
v -0.1493111 0.02243644 -0.001567185
v -0.1642565 0.00629288 -0.001635194
v -0.1691285 -0.01516032 -0.001559019
v -0.1626219 -0.03617477 -0.001359224
v -0.1464801 -0.05111969 -0.001089215
v -0.1250281 -0.05599052 -0.000821352
v -0.1031631 -0.05776799 -0.001504958
v -0.04767144 -0.04806912 -0.01001114
v -0.03800759 -0.004651427 0.02063936
v -0.03955898 0.0169822 0.01559937
v -0.1068452 0.02407396 -0.001105487
v -0.111937 0.0299899 0.06255716
v -0.1302243 0.02365577 0.07301837
v -0.1431736 0.007639706 0.08075041
v -0.1473151 -0.01376683 0.08368158
v -0.141539 -0.03482795 0.08102638
v -0.1273932 -0.04990035 0.07349634
v -0.108668 -0.05494541 0.0631091
v -0.08833596 -0.05470955 0.05206621
v -0.03801261 -0.04750168 0.02009511
v -0.03378296 -0.004078925 0.01294416
v -0.09321177 0.0249449 0.05216986
v -0.06582448 0.03207129 0.1097286
v -0.07642633 0.02608401 0.1280517
v -0.08374947 0.01032186 0.1415391
v -0.08583164 -0.01099169 0.1465769
v -0.08211493 -0.0321458 0.1418151
v -0.07359526 -0.04747212 0.1285297
v -0.0625554 -0.05286407 0.1102806
v -0.05336556 -0.0538795 0.0905807
v -0.02824271 -0.04699498 0.04020214
v -0.005905852 -0.002642214 0.0430063
v -0.006786346 0.01862621 0.04856187
v -0.05478463 0.02667934 0.09147942
v -0.002315238 0.03463113 0.1275015
v -0.00233224 0.02907056 0.1487868
v -0.001906708 0.01362073 0.1644427
v -0.001152679 -0.007578492 0.1702741
v -0.0002721846 -0.02884692 0.1647186
v 0.0004988462 -0.04448557 0.1492648
v 0.0009538233 -0.05030417 0.1280535
v -0.0004070848 -0.05302972 0.1052727
v 0.001733229 -0.04583913 0.04052806
v -0.001860276 0.02881259 0.1062902
v 0.06157336 0.03698367 0.1111137
v 0.07220447 0.03181517 0.1296676
v 0.08042495 0.01665235 0.143324
v 0.08403213 -0.004441857 0.1484236
v 0.08205947 -0.02581531 0.1436
v 0.07503556 -0.04174101 0.1301456
v 0.06484243 -0.04795164 0.1116656
v 0.05315107 -0.05126977 0.09294868
v 0.02171719 -0.04506856 0.04074532
v 0.03466445 -0.001815319 0.0266512
v 0.03874272 0.01962584 0.02941352
v 0.05138023 0.03077298 0.09263366
v 0.1087224 0.0384984 0.06495613
v 0.1272117 0.03358239 0.07581717
v 0.1411848 0.0186044 0.08384198
v 0.1468976 -0.002422154 0.08688021
v 0.1428193 -0.02386326 0.08411795
v 0.1300428 -0.03997374 0.0762952
v 0.1119915 -0.04643691 0.06550807
v 0.09338757 -0.05008566 0.05550581
v 0.04192328 -0.04441941 0.02096421
v 0.09067114 0.03203529 0.05416906
v 0.1264985 0.03876954 0.001396835
v 0.1479504 0.03389871 0.001664639
v 0.1640923 0.0189538 0.001934648
v 0.1705989 -0.002060652 0.002134442
v 0.1657268 -0.02351385 0.002210617
v 0.1507815 -0.03965741 0.002142608
v 0.1297675 -0.04616576 0.001948774
v 0.1079524 -0.04790723 0.002914488
v 0.04214539 -0.04454082 0.0009657145
v 0.03546157 0.02250636 -0.01027262
v 0.1054845 0.03226125 0.001202941
v 0.1101384 0.03772444 -0.06253362
v 0.1288636 0.03267938 -0.07292092
v 0.1430094 0.01760697 -0.08045095
v 0.1487854 -0.003454149 -0.0831061
v 0.144644 -0.02486068 -0.08017498
v 0.1316947 -0.04087675 -0.07244289
v 0.1134074 -0.04721087 -0.06198168
v 0.09189504 -0.05040896 -0.05033863
v 0.0323755 -0.04504752 -0.01914126
v 0.03132011 0.001099765 -0.007341504
v 0.09185107 0.03139031 -0.05207247
v 0.06402576 0.0356431 -0.1097052
v 0.07506558 0.03025115 -0.1279543
v 0.08358528 0.01492476 -0.1412397
v 0.08730198 -0.006229281 -0.1460015
v 0.08521981 -0.02754289 -0.1409637
v 0.07789668 -0.04330498 -0.1274763
v 0.06729481 -0.04929227 -0.1091532
v 0.05280229 -0.05558789 -0.08919948
v 0.0226056 -0.04555422 -0.03924829
v 0.000578329 -0.0002877712 -0.03878909
v 0.0534239 0.02965587 -0.09138209
v 0.002621636 -0.04632479 -0.03946555
v 0.09619172 0.04463196 -0.05745041
v 0.1286587 0.03531218 -0.06965411
v 0.1470107 0.03735614 -0.004267395
v 0.1634867 0.02363634 0.002355516
v 0.1423528 0.0233286 -0.0804159
v 0.1660717 0.01497662 0.0005569458
v 0.1262088 0.0002493858 -0.07369471
v 0.14648 0.00250715 -0.00146991
v 0.11512 -0.01394069 -0.06644714
v 0.133472 -0.01189673 -0.001060426
v 0.09927249 -0.0196178 -0.05677885
v 0.1150028 -0.01786584 -0.0007330775
v 0.08291265 -0.01526076 -0.04728037
v 0.09602122 -0.01380074 -0.0005756021
v 0.07042409 -0.002036929 -0.04049689
v 0.08161342 -0.0007907152 -0.0006301403
v 0.03161883 0.008427858 -0.007608116
v 0.02855395 0.02393693 -0.007559896
v 0.07960081 0.04960126 -0.04837841
v 0.08730358 0.04301316 -0.001194894
v 0.0556967 0.04083019 -0.1009873
v 0.0666535 0.0349896 -0.1297782
v 0.08393362 0.009003162 -0.1439494
v 0.1457245 0.0130502 -0.08364254
v 0.07257408 -0.003375709 -0.1260646
v 0.06656326 -0.01722264 -0.1138589
v 0.05765246 -0.0224309 -0.09741741
v 0.04822929 -0.01760495 -0.08114588
v 0.04081872 -0.004037976 -0.06940413
v 0.007274076 0.007101834 -0.0314405
v 0.008348867 0.02147645 -0.03389591
v 0.03515084 0.03710151 -0.06921363
v -0.000929147 0.03801477 -0.1120465
v 0.0009028018 0.03134912 -0.146511
v 0.08038157 0.02023727 -0.1405601
v 0.002478182 0.01589519 -0.1644092
v -5.275011E-05 -0.007396936 -0.1445473
v 0.0008125454 -0.02086312 -0.1305916
v 0.001294702 -0.02555132 -0.1117598
v 0.001264498 -0.02020532 -0.09309787
v 0.0007300526 -0.006257594 -0.07960624
v -0.002047345 0.04465669 -0.0941959
v -0.05694929 0.0394749 -0.1003197
v -0.07856748 0.03013402 -0.1263778
v -0.08126101 -0.006026685 -0.1480073
v 0.002803802 0.002408803 -0.1703658
v -0.07221141 -0.0107367 -0.1241903
v -0.06451431 -0.02388668 -0.1121619
v -0.05469975 -0.02814293 -0.09596294
v -0.04539755 -0.02236503 -0.07993376
v -0.0391002 -0.008101106 -0.06836951
v -0.02378625 0.005808949 -0.02225077
v -0.02840903 0.02641863 -0.02846426
v -0.04484949 0.03360659 -0.06975102
v -0.0991514 0.04538476 -0.05552745
v -0.1259662 0.02853751 -0.07772386
v -0.1390677 0.01197064 -0.0848586
v -0.1432287 0.001893342 -0.08608013
v -0.124567 -0.01250023 -0.07044816
v -0.111913 -0.02548325 -0.06350797
v -0.09532723 -0.02951139 -0.05425954
v -0.07925376 -0.02350539 -0.04518098
v -0.06799951 -0.009074509 -0.03870487
v -0.08256561 0.04135662 -0.04627901
v -0.1115794 0.0364477 0.001336515
v -0.151878 0.02549958 0.009482086
v -0.1664789 0.006930292 0.0008467436
v -0.1675421 -0.0008522868 -0.003028333
v -0.143091 -0.01221484 0.002278864
v -0.1286832 -0.02522492 0.002333462
v -0.1097016 -0.02928996 0.002175987
v -0.09123242 -0.02332085 0.001848638
v -0.07822439 -0.008916974 0.001439095
v -0.03189686 -0.008631825 0.01139921
v -0.03863388 0.0265761 0.01167977
v -0.0868693 0.0358035 0.0008548498
v -0.09779552 0.04735816 0.05695385
v -0.133526 0.02754354 0.0748688
v -0.1446148 0.01335341 0.08211637
v -0.1453523 -0.0001016855 0.08227646
v -0.1228198 -0.009957135 0.07450366
v -0.1103312 -0.02318096 0.06772017
v -0.09397134 -0.027538 0.05822176
v -0.07812387 -0.0218609 0.04855341
v -0.06703505 -0.00767076 0.04130584
v -0.08143571 0.04300112 0.04745537
v -0.05565143 0.03883564 0.09554827
v -0.07190344 0.02992952 0.1314874
v -0.07791424 0.01608264 0.1436932
v -0.08693033 0.0008312464 0.1457009
v -0.06918505 -0.00633204 0.1268736
v -0.06177446 -0.01989901 0.1151319
v -0.05235133 -0.02472496 0.09886032
v -0.04344049 -0.01951671 0.08241886
v -0.03742968 -0.005669773 0.07021308
v -0.006742358 -0.0007019043 0.03910834
v -0.009085014 0.02815855 0.04398465
v -0.04675236 0.04534531 0.08132088
v 0.0001593232 0.04601371 0.1164566
v -0.006152719 0.03357005 0.1482202
v -0.002699271 0.01891595 0.1624097
v 0.003441796 -0.002310812 0.1453562
v 0.003976241 -0.01625854 0.1318646
v 0.004006431 -0.02160454 0.1132027
v 0.003524289 -0.01691633 0.09437084
v 0.002658978 -0.003450155 0.08041519
v 0.000212431 0.04794568 0.09327286
v 0.05621403 0.04819381 0.09504479
v 0.07736865 0.03688419 0.1279749
v 0.08129762 0.02066398 0.1455835
v 0.0841854 0.006222606 0.1467347
v -0.003429368 0.00516057 0.1697903
v 0.07560043 0.001028955 0.1249992
v 0.06930308 -0.01323497 0.1134349
v 0.06000087 -0.01901287 0.09740579
v 0.05018631 -0.01475662 0.0812068
v 0.04248922 -0.001606643 0.06917846
v 0.02727742 0.000982821 0.02813625
v 0.02894013 0.0233466 0.03213423
v 0.04687446 0.05010539 0.08010876
v 0.09393404 0.04102945 0.06101739
v 0.1247674 0.0384807 0.07932085
v 0.1399365 0.0229888 0.08583993
v 0.1279561 0.002792478 0.07125705
v 0.1167018 -0.0116384 0.06478095
v 0.1006284 -0.01764441 0.05570239
v 0.08404256 -0.01361626 0.04645395
v 0.07138857 -0.0006332397 0.03951377
v 0.07363516 0.03526676 0.04148203
v 0.116453 0.0487923 -0.001923323
v 0.1439229 0.009171247 0.08965451
v -0.08046737 0.005687416 -0.1466325
vn -0.03845956 0.9992391 -0.006493466
vn -0.02775435 0.8623312 -0.5055835
vn -0.00961238 0.4943623 -0.8692028
vn 0.01110522 -0.006070509 -0.9999199
vn 0.02884718 -0.5048768 -0.8627093
vn 0.03885956 -0.8684016 -0.4943364
vn -0.02138469 -0.9745236 -0.2232631
vn 0.04476825 -0.9755194 0.2153082
vn 0.245665 -0.3349273 0.909655
vn 0.2303405 0.2657035 0.936133
vn -0.002838725 0.9913462 0.131242
vn -0.03885956 0.8684018 0.4943362
vn -0.03845956 0.9992391 -0.006493466
vn -0.2782979 0.8531057 -0.4413174
vn -0.4435665 0.4783833 -0.7578906
vn -0.4899818 -0.02452151 -0.8713877
vn -0.4051069 -0.5208558 -0.7513971
vn -0.211684 -0.8776271 -0.4300703
vn -0.1331865 -0.9767309 -0.1681013
vn 0.1340063 -0.9773268 0.1639356
vn 0.6930941 -0.1606729 0.7027124
vn 0.08006981 0.9902159 0.1142861
vn 0.2116838 0.8776273 0.4300701
vn -0.03845956 0.9992391 -0.006493466
vn -0.4631963 0.8471654 -0.2603074
vn -0.7638199 0.4680945 -0.4443722
vn -0.8597786 -0.03640202 -0.5093678
vn -0.7253603 -0.5311446 -0.4378787
vn -0.3965824 -0.8835674 -0.2490604
vn -0.1594147 -0.9860053 -0.04879075
vn 0.180518 -0.9818531 0.05811823
vn 0.9671941 -0.249398 0.04833382
vn 0.9219443 0.2879224 0.2590742
vn 0.1107045 0.9932299 0.03519855
vn 0.3965821 0.8835676 0.2490603
vn -0.03845956 0.9992391 -0.006493466
vn -0.5329062 0.8461021 -0.01105513
vn -0.8845611 0.4662528 -0.01265459
vn -0.9991984 -0.03852863 -0.01086325
vn -0.8461015 -0.5329863 -0.00616112
vn -0.4662923 -0.8846307 0.0001918797
vn -0.0798296 -0.9961322 0.03671345
vn 0.1508934 -0.9884412 0.01466785
vn 0.9434139 -0.1413001 -0.3000072
vn 0.115968 0.992192 -0.04589698
vn 0.466292 0.8846309 -0.0001918835
vn -0.03845956 0.9992391 -0.006493466
vn -0.4687489 0.8502007 0.2396525
vn -0.7734373 0.4733517 0.4215838
vn -0.8708839 -0.03033155 0.4905521
vn -0.7349777 -0.5258874 0.4280773
vn -0.402135 -0.8805321 0.2508995
vn 0.02321975 -0.9995013 0.0214027
vn 0.1114083 -0.9905649 -0.07980838
vn 0.703593 -0.3140399 -0.6374448
vn 0.6819671 0.2725913 -0.6786861
vn 0.07038823 0.9911509 -0.1125408
vn 0.4021347 0.8805323 -0.2508994
vn -0.03845956 0.9992391 -0.006493466
vn -0.2879153 0.8583629 0.4246387
vn -0.4602243 0.487489 0.7419893
vn -0.5092166 -0.01400716 0.8605244
vn -0.4217648 -0.5117501 0.7484827
vn -0.2213013 -0.8723699 0.4358857
vn 0.02284365 -0.9978091 0.06208882
vn 0.04610581 -0.9929984 -0.1087587
vn 0.008585828 0.05878872 -0.9982336
vn 0.009151706 0.9846112 -0.1745193
vn 0.2213012 0.8723701 -0.4358855
vn -0.03845956 0.9992391 -0.006493466
vn -0.03885952 0.8684016 0.4943365
vn -0.0288471 0.5048767 0.8627093
vn -0.01110513 0.006070424 0.9999199
vn 0.009612459 -0.4943624 0.8692028
vn 0.02775439 -0.8623312 0.5055835
vn 0.0659083 -0.9912167 0.1146549
vn 0.004818586 -0.9926628 -0.1208188
vn -0.3638987 -0.1883142 -0.9122036
vn -0.2496136 0.235042 -0.9393873
vn -0.07894717 0.9828437 -0.16669
vn -0.0277544 0.8623313 -0.5055832
vn -0.03845956 0.9992391 -0.006493466
vn 0.2116841 0.8776271 0.4300704
vn 0.4051071 0.5208557 0.7513971
vn 0.4899821 0.02452144 0.8713875
vn 0.4435666 -0.4783833 0.7578905
vn 0.278298 -0.8531057 0.4413174
vn 0.1260149 -0.9873412 0.09632027
vn -0.05171728 -0.9948617 -0.08703731
vn -0.6989678 -0.02367925 -0.714761
vn -0.1671453 0.9761271 -0.1387021
vn -0.2782979 0.8531058 -0.4413171
vn -0.03845956 0.9992391 -0.006493466
vn 0.3965824 0.8835674 0.2490604
vn 0.7253604 0.5311446 0.4378787
vn 0.8597787 0.03640193 0.5093678
vn 0.7638199 -0.4680946 0.4443721
vn 0.4631963 -0.8471654 0.2603074
vn 0.1698179 -0.984524 0.04329405
vn -0.04938728 -0.997265 -0.05498655
vn -0.9859642 -0.1666604 -0.00993833
vn -0.9802117 0.1743725 0.09369724
vn -0.2077002 0.9767052 -0.05392214
vn -0.4631961 0.8471656 -0.2603073
vn -0.03845956 0.9992391 -0.006493466
vn 0.4662923 0.8846307 -0.0001918638
vn 0.8461015 0.5329862 0.006161149
vn 0.9991984 0.03852855 0.01086329
vn 0.8845611 -0.4662529 0.01265461
vn 0.5329062 -0.8461021 0.01105515
vn 0.07939822 -0.9968349 -0.004022212
vn -0.05631657 -0.9963732 0.06378908
vn -0.8902856 -0.1318212 0.4359068
vn -0.1411556 0.9897866 0.01994147
vn -0.5329059 0.8461023 -0.01105515
vn -0.03845956 0.9992391 -0.006493466
vn 0.402135 0.8805321 -0.2508995
vn 0.7349778 0.5258874 -0.4280772
vn 0.8708839 0.03033147 -0.490552
vn 0.7734373 -0.4733517 -0.4215837
vn 0.4687489 -0.8502007 -0.2396525
vn 0.111888 -0.9915515 -0.06562603
vn -0.04130828 -0.984107 0.1727053
vn -0.6673031 -0.3314842 0.6669518
vn -0.7012394 0.2281531 0.6754327
vn -0.1094311 0.9919828 0.06320544
vn -0.4687487 0.8502008 0.2396524
vn -0.03845956 0.9992391 -0.006493466
vn 0.2213012 0.87237 -0.4358858
vn 0.4217645 0.51175 -0.7484829
vn 0.5092164 0.01400707 -0.8605245
vn 0.4602241 -0.4874891 -0.7419893
vn 0.2879151 -0.8583629 -0.424639
vn 0.1034203 -0.9676353 -0.230187
vn 0.02815254 -0.9772071 0.2104133
vn -0.004689594 -0.156838 0.9876131
vn -0.07811359 0.9875007 0.1368961
vn -0.287915 0.858363 0.4246385
vn -0.7925665 0.4594458 -0.4009338
vn -0.8371348 -0.2637564 -0.4792055
vn 0.7264226 0.3594291 -0.5857652
vn 0.6445855 -0.234935 -0.7275405
vn -0.9731674 -0.2167775 0.07715422
vn -0.9724871 0.2036371 0.1131405
vn -0.1509776 0.9849641 0.08397365
vn -0.05198798 -0.9949589 -0.0857565
vn -0.1126083 -0.993628 0.004781622
vn -0.05251899 -0.9973345 0.05065129
vn -0.06105994 -0.9966295 0.05478369
vn -0.8902856 -0.1318211 0.4359067
vn 0.03525176 -0.9754782 0.2172544
vn 0.03538112 -0.9769408 0.2105584
vn -0.004689649 -0.156838 0.9876132
vn 0.181234 -0.9714264 0.1532486
vn 0.1676901 -0.9831279 0.07307161
vn 0.8837565 -0.1202035 0.4522451
vn 0.1668626 -0.9853601 -0.03496295
vn 0.1207192 -0.992116 -0.0336558
vn 0.8898097 -0.1572215 -0.4283924
vn 0.03952931 -0.9924724 -0.1159137
vn 0.03948449 -0.9932566 -0.1090063
vn 0.00858595 0.05878888 -0.9982335
vn 0.9828374 -0.1775951 0.04990508
vn -0.03986598 -0.9679625 -0.2479099
vn 0.1183747 -0.9612463 -0.248984
vn 0.2489071 -0.960768 -0.1223521
vn 0.1480153 -0.9889834 0.001829827
vn 0.07870316 -0.9967076 -0.01948958
vn 0.1330304 -0.9847846 0.1118134
vn 0.0636715 -0.9887281 0.1355085
vn -0.01730673 -0.9926475 0.1197973
vn -0.02179788 -0.9989082 0.04132034
vn 0.03697492 -0.9982218 0.04675599
vn -0.08092453 -0.9967151 0.003210563
vn -0.1057598 -0.9891533 -0.1019349
vn 0.2404958 0.9657219 -0.09768768
vn 0.6742203 0.7076418 -0.2113531
vn 0.9168387 0.3225571 -0.2352946
vn 0.5419043 -0.8309231 -0.1261212
vn 0.8903291 -0.4553093 -0.002744115
vn 0.5434686 -0.8393897 0.008175363
vn 0.05098615 -0.9985563 0.01690426
vn -0.4551582 -0.8901604 0.02110367
vn -0.1920777 -0.9777374 0.0844738
vn -0.3214648 0.9292226 0.1822245
vn 0.3251861 0.9423865 0.07849609
vn 0.1792475 0.9515577 -0.2498166
vn 0.3950228 0.8212114 -0.4117874
vn 0.6221468 0.4129027 -0.665165
vn 0.3889914 -0.8565638 -0.339093
vn 0.7692446 -0.4687952 -0.4341587
vn 0.4735605 -0.8471757 -0.240902
vn 0.05098615 -0.9985563 0.01690426
vn -0.3852501 -0.8823743 0.2701811
vn -0.1147078 -0.9760137 0.1850394
vn -0.6939516 0.1713435 0.6993371
vn -0.3348414 0.9291119 0.1569467
vn 0.1600961 0.9592863 -0.2326781
vn -0.005955317 0.9817293 -0.1901893
vn 0.1481161 0.6696914 -0.7277191
vn 0.25592 0.3524933 -0.9001408
vn 0.1709221 -0.8576253 -0.4850406
vn 0.4488724 -0.4904489 -0.7469761
vn 0.2885935 -0.8596775 -0.4215072
vn 0.05098615 -0.9985563 0.01690426
vn -0.2002831 -0.8698726 0.4507865
vn -0.01517914 -0.9629766 0.2691574
vn -0.05782261 0.9284672 0.366886
vn 0.02125427 0.9374475 -0.3474771
vn -0.01431526 0.9815631 -0.1906017
vn -0.1764848 0.7372811 -0.652127
vn -0.2731312 0.3831302 -0.8823891
vn -0.05849348 -0.9310811 -0.3600924
vn 0.01505622 -0.5144685 -0.8573771
vn 0.03812958 -0.8735452 -0.4852472
vn 0.05098615 -0.9985563 0.01690426
vn 0.05018102 -0.8560049 0.5145265
vn 0.1154301 -0.9609479 0.2515056
vn 0.2550096 0.3310926 0.9084864
vn -0.1251636 0.9678139 0.2183352
vn -0.04910446 0.935085 -0.3510054
vn -0.3265706 0.9000304 -0.2886121
vn -0.5505844 0.6571299 -0.5148175
vn -0.6402562 0.3474182 -0.6851076
vn -0.1195679 -0.981628 -0.1486942
vn -0.4159635 -0.5344178 -0.7357798
vn -0.2107198 -0.8850629 -0.415043
vn 0.05098615 -0.9985563 0.01690426
vn 0.2990305 -0.8444872 0.4443221
vn 0.2427341 -0.9481071 0.2053607
vn 0.2432835 0.9673139 0.07153208
vn 0.2027351 0.9772643 0.06207169
vn -0.5403107 0.8413467 0.01414201
vn -0.7258443 0.6603244 -0.1926697
vn -0.8850121 0.3952562 -0.2460202
vn -0.5333317 -0.8354543 -0.1325646
vn -0.7286953 -0.5449515 -0.4147663
vn -0.3912756 -0.8911446 -0.2297057
vn 0.05098615 -0.9985563 0.01690426
vn 0.4795862 -0.8384056 0.2589849
vn 0.005036705 -0.9999738 0.0052063
vn 0.9272014 0.3028929 0.2203479
vn 0.2472923 0.9671312 0.05919217
vn 0.1648276 0.9776862 0.130237
vn -0.4450201 0.8902436 0.09707458
vn -0.7269711 0.661736 0.1833528
vn -0.9663969 0.05595291 0.2508911
vn -0.4434783 -0.8832883 0.1520817
vn -0.839343 -0.5432471 0.01964845
vn -0.455158 -0.8901606 0.02110372
vn 0.05098615 -0.9985563 0.01690426
vn 0.5434688 -0.8393895 0.008175314
vn -0.0006003879 -0.9995063 0.0314127
vn 0.2225755 0.9592423 -0.1741104
vn 0.1608861 0.972405 -0.1689504
vn -0.01699253 0.9722673 0.2332544
vn -0.5083473 0.6830013 0.5244922
vn -0.6544341 0.4653316 0.5959719
vn -0.274465 -0.8982393 0.3432712
vn -0.7182584 -0.5297612 0.4510631
vn -0.3852499 -0.8823745 0.2701811
vn 0.05098615 -0.9985563 0.01690426
vn 0.4735605 -0.8471757 -0.2409022
vn 0.1130008 -0.9924812 -0.04702858
vn 0.7227082 0.1717783 -0.6694663
vn 0.1827678 0.9500598 -0.2529474
vn 0.3852496 0.8823746 -0.270181
vn -0.137452 0.9312345 0.3375044
vn -0.2129513 0.6964785 0.6852514
vn -0.2422007 0.2660079 0.933048
vn -0.03155447 -0.9436952 0.329308
vn -0.3978863 -0.5081075 0.7638804
vn -0.2002829 -0.8698727 0.4507862
vn 0.05098615 -0.9985563 0.01690426
vn 0.2885935 -0.8596774 -0.4215074
vn 0.07625274 -0.9935894 -0.08346052
vn 0.0681703 0.8850722 -0.4604345
vn -0.07604656 0.9936744 0.08263195
vn 0.1100009 0.9178308 0.3814269
vn 0.1295134 0.7435474 0.6560209
vn 0.2218986 0.4518433 0.8640594
vn 0.09983609 -0.9759542 0.1937681
vn 0.03592991 -0.4840879 0.8742814
vn 0.05018101 -0.856005 0.5145262
vn 0.05098615 -0.9985563 0.01690426
vn 0.03812958 -0.8735451 -0.4852475
vn 0.02571192 -0.9970416 -0.07243557
vn -0.2703153 0.1888666 -0.9440651
vn -0.1606953 0.8916093 -0.4233321
vn -0.02270472 0.9962932 0.08297222
vn 0.03989759 0.9966372 0.07157154
vn 0.4984262 0.7020631 0.5086044
vn 0.6962807 0.1943129 0.6909672
vn 0.1923167 -0.9689247 0.155561
vn 0.4669495 -0.4641386 0.7526841
vn 0.2990304 -0.8444872 0.4443221
vn 0.05098615 -0.9985563 0.01690426
vn -0.2107198 -0.8850628 -0.4150433
vn -0.02247531 -0.9982525 -0.05465202
vn -0.1442406 0.8861623 -0.4403532
vn 0.04856029 0.9431894 -0.3286877
vn 0.007730542 0.9921104 0.1251287
vn 0.6680825 0.7248671 0.168028
vn 0.9104481 0.3311014 0.2479031
vn 0.2911637 -0.9534962 0.07790192
vn 0.7796815 -0.453605 0.4316703
vn 0.4795864 -0.8384056 0.2589847
vn 0.05098615 -0.9985563 0.01690426
vn -0.3912758 -0.8911445 -0.2297057
vn -0.1756623 -0.9836012 -0.04088289
vn -0.9906259 0.09174404 -0.1012096
vn -0.2735384 0.9579837 0.08627807
vn -0.1903726 0.9748377 0.1159733
vn -0.2707087 0.9615162 -0.04694113
vn -0.330407 0.8871321 0.3222232
vn -0.6786203 0.04591507 0.7330526
vn -0.9227703 0.2652492 -0.2795313
vn -0.08400519 0.9581222 -0.2737608
vn -0.2229171 0.1285144 -0.9663291
vn 0.1370399 0.9796598 -0.1465835
vn 0.627964 0.3999687 -0.6675974
vn 0.3548332 0.9313361 0.08189306
vn 0.9374065 0.2245428 0.2661756
vn 0.03589052 0.9520243 0.3039103
vn 0.1927612 0.1162156 0.9743393
vn -0.7766989 -0.1553872 0.6104044
vn -0.3321727 0.928112 0.1681351
vn -0.9810015 -0.1938856 0.006660683
vn -0.3104668 0.9504294 0.01715443
vn 0.1646796 0.1540994 0.9742351
vn 0.1732493 0.9289288 0.3272247
vn 0.1142949 -0.9611967 0.2510727
vn 0.3980373 -0.8738864 -0.2790856
vn 0.9368521 0.1768629 0.3017078
vn 0.1192858 -0.9779224 0.1715769
vn 0.7123995 0.1417938 -0.6873001
vn 0.0260676 -0.9970445 -0.07226833
vn -0.310186 0.1338503 -0.9412059
vn 0.01622461 -0.9792522 -0.2019945
vn -0.03720633 0.8785829 -0.4761383
vn -0.2360481 0.630783 -0.7391846
vn -0.5792201 0.5463002 -0.6050289
vn -0.7128218 0.1291994 -0.689342
vn -0.8118306 0.55725 0.174366
vn -0.9657136 0.002676367 0.2595957
vn -0.2674166 0.4665648 0.8430929
vn -0.03223498 -0.9582944 0.2839591
vn 0.09441461 -0.9442867 0.3152912
vn -0.1891379 -0.9637084 0.1883956
vn -0.3682538 -0.9238991 0.1039213
vn -0.3910291 -0.9089606 -0.1445232
vn -0.411122 -0.8603253 -0.3013619
vn 0.04236524 -0.9769346 -0.2092946
vn 0.2550778 0.3958 -0.8822004
vn 0.1831002 -0.9255962 -0.3312793
vn 0.1532715 0.7545889 -0.6380465
vn 0.3907475 -0.8541896 -0.3430403
vn 0.4337486 0.758775 -0.4859245
vn 0.9022238 0.3670479 -0.2264244
vn 0.508202 -0.8550267 -0.103247
vn 0.5809489 0.799753 -0.1513065
vn 0.5297041 -0.8447129 0.07664038
vn 0.5885643 0.7899079 0.1721556
vn 0.6321198 0.3702789 0.6806746
vn 0.2010858 -0.9663307 0.1605284
vn -0.2055496 0.6553438 0.7268245
vn 0.1251188 0.7052227 0.6978583
vn 0.008007586 0.9924956 0.122017
vn 0.2990001 0.9450125 0.1324779
vn 0.1916294 0.9814503 0.005783623
vn -0.1281472 0.9297252 0.3452381
vn -0.1837453 0.9702968 0.157359
vn -0.2264236 0.9315258 0.2845912
vn 0.02886301 0.9864753 0.1613487
vn -0.2823 0.952186 -0.1168269
vn 0.02169773 0.9800362 -0.1976316
vn 0.1581324 0.9788542 0.1297633
vn -0.1169918 0.9657267 0.2317002
vn 0.2513675 0.9641007 0.08558276
vn -0.1230216 0.962228 -0.242864
vn -0.2495449 0.9671796 -0.04786377
vn 0.08507552 0.9817266 0.1702199
vn -0.009206619 0.9793075 -0.2021681
vn -0.2868505 0.9578498 0.01550784
vn 0.331287 0.9241757 -0.1901268
vn -0.1945339 0.9808926 -0.002509478
usemtl mat18
f 4//1 3//1 2//1 1//1
f 6//2 5//2 3//2 4//2
f 8//3 7//3 5//3 6//3
f 10//4 9//4 7//4 8//4
f 12//5 11//5 9//5 10//5
f 14//6 13//6 11//6 12//6
f 15//7 13//7 14//7
f 17//8 15//8 16//8
f 19//9 18//9 17//9
f 21//10 20//10 18//10 19//10
f 23//11 22//11 20//11 21//11
f 1//12 2//12 22//12 23//12
f 3//13 25//13 24//13 2//13
f 5//14 26//14 25//14 3//14
f 7//15 27//15 26//15 5//15
f 9//16 28//16 27//16 7//16
f 11//17 29//17 28//17 9//17
f 13//18 30//18 29//18 11//18
f 15//19 30//19 13//19
f 32//20 31//20 15//20
f 18//21 32//21 17//21
f 22//22 33//22 20//22
f 2//23 24//23 33//23 22//23
f 25//24 35//24 34//24 24//24
f 26//25 36//25 35//25 25//25
f 27//26 37//26 36//26 26//26
f 28//27 38//27 37//27 27//27
f 29//28 39//28 38//28 28//28
f 30//29 40//29 39//29 29//29
f 31//30 40//30 30//30
f 42//31 41//31 31//31
f 18//32 43//32 42//32
f 20//33 44//33 43//33
f 33//34 45//34 44//34 20//34
f 24//35 34//35 45//35 33//35
f 35//36 47//36 46//36 34//36
f 36//37 48//37 47//37 35//37
f 37//38 49//38 48//38 36//38
f 38//39 50//39 49//39 37//39
f 39//40 51//40 50//40 38//40
f 40//41 52//41 51//41 39//41
f 41//42 52//42 40//42
f 54//43 53//43 41//43
f 55//44 54//44 42//44
f 45//45 56//45 44//45
f 34//46 46//46 56//46 45//46
f 47//47 58//47 57//47 46//47
f 48//48 59//48 58//48 47//48
f 49//49 60//49 59//49 48//49
f 50//50 61//50 60//50 49//50
f 51//51 62//51 61//51 50//51
f 52//52 63//52 62//52 51//52
f 53//53 63//53 52//53
f 65//54 64//54 53//54
f 55//55 66//55 65//55
f 44//56 67//56 66//56 55//56
f 56//57 68//57 67//57 44//57
f 46//58 57//58 68//58 56//58
f 58//59 70//59 69//59 57//59
f 59//60 71//60 70//60 58//60
f 60//61 72//61 71//61 59//61
f 61//62 73//62 72//62 60//62
f 62//63 74//63 73//63 61//63
f 63//64 75//64 74//64 62//64
f 64//65 75//65 63//65
f 77//66 76//66 64//66
f 66//67 77//67 65//67
f 68//68 78//68 67//68
f 57//69 69//69 78//69 68//69
f 70//70 80//70 79//70 69//70
f 71//71 81//71 80//71 70//71
f 72//72 82//72 81//72 71//72
f 73//73 83//73 82//73 72//73
f 74//74 84//74 83//74 73//74
f 75//75 85//75 84//75 74//75
f 76//76 85//76 75//76
f 87//77 86//77 76//77
f 66//78 88//78 87//78
f 67//79 89//79 88//79 66//79
f 78//80 90//80 89//80 67//80
f 69//81 79//81 90//81 78//81
f 80//82 92//82 91//82 79//82
f 81//83 93//83 92//83 80//83
f 82//84 94//84 93//84 81//84
f 83//85 95//85 94//85 82//85
f 84//86 96//86 95//86 83//86
f 85//87 97//87 96//87 84//87
f 86//88 97//88 85//88
f 87//89 98//89 86//89
f 88//90 99//90 87//90
f 90//91 100//91 89//91
f 79//92 91//92 100//92 90//92
f 92//93 102//93 101//93 91//93
f 93//94 103//94 102//94 92//94
f 94//95 104//95 103//95 93//95
f 95//96 105//96 104//96 94//96
f 96//97 106//97 105//97 95//97
f 97//98 107//98 106//98 96//98
f 98//99 107//99 97//99
f 109//100 108//100 98//100
f 88//101 109//101 99//101
f 89//102 110//102 88//102
f 100//103 111//103 89//103
f 91//104 101//104 111//104 100//104
f 102//105 113//105 112//105 101//105
f 103//106 114//106 113//106 102//106
f 104//107 115//107 114//107 103//107
f 105//108 116//108 115//108 104//108
f 106//109 117//109 116//109 105//109
f 107//110 118//110 117//110 106//110
f 108//111 118//111 107//111
f 120//112 119//112 108//112
f 121//113 120//113 109//113
f 111//114 122//114 110//114
f 101//115 112//115 122//115 111//115
f 113//116 124//116 123//116 112//116
f 114//117 125//117 124//117 113//117
f 115//118 126//118 125//118 114//118
f 116//119 127//119 126//119 115//119
f 117//120 128//120 127//120 116//120
f 118//121 129//121 128//121 117//121
f 119//122 129//122 118//122
f 131//123 130//123 119//123
f 121//124 132//124 131//124
f 110//125 21//125 132//125 121//125
f 122//126 133//126 21//126 110//126
f 112//127 123//127 133//127 122//127
f 124//128 4//128 1//128 123//128
f 125//129 6//129 4//129 124//129
f 126//130 8//130 6//130 125//130
f 127//131 10//131 8//131 126//131
f 128//132 12//132 10//132 127//132
f 129//133 14//133 12//133 128//133
f 130//134 14//134 129//134
f 134//135 16//135 130//135
f 19//136 134//136 131//136
f 133//137 23//137 21//137
f 123//138 1//138 23//138 133//138
f 42//139 43//139 55//139
f 55//140 43//140 44//140
f 131//141 132//141 19//141
f 19//142 132//142 21//142
f 88//143 121//143 109//143
f 110//144 121//144 88//144
f 111//145 110//145 89//145
f 87//146 99//146 98//146
f 98//147 99//147 109//147
f 108//148 109//148 120//148
f 119//149 120//149 131//149
f 131//150 120//150 121//150
f 130//151 131//151 134//151
f 16//152 134//152 17//152
f 17//153 134//153 19//153
f 15//154 17//154 32//154
f 31//155 32//155 42//155
f 42//156 32//156 18//156
f 41//157 42//157 54//157
f 53//158 54//158 65//158
f 65//159 54//159 55//159
f 64//160 65//160 77//160
f 76//161 77//161 87//161
f 87//162 77//162 66//162
f 43//163 18//163 20//163
f 14//164 16//164 15//164
f 130//165 16//165 14//165
f 119//166 130//166 129//166
f 108//167 119//167 118//167
f 98//168 108//168 107//168
f 86//169 98//169 97//169
f 76//170 86//170 85//170
f 64//171 76//171 75//171
f 53//172 64//172 63//172
f 41//173 53//173 52//173
f 31//174 41//174 40//174
f 15//175 31//175 30//175
usemtl mat24
f 137//176 136//176 135//176
f 138//177 136//177 137//177
f 140//178 139//178 138//178
f 142//179 141//179 140//179
f 144//180 143//180 141//180 142//180
f 146//181 145//181 143//181 144//181
f 148//182 147//182 145//182 146//182
f 150//183 149//183 147//183 148//183
f 151//184 149//184 150//184
f 154//185 153//185 152//185
f 135//186 153//186 154//186
f 136//187 155//187 135//187
f 139//188 156//188 136//188
f 158//189 157//189 139//189
f 141//190 159//190 158//190
f 143//191 160//191 159//191 141//191
f 145//192 161//192 160//192 143//192
f 147//193 162//193 161//193 145//193
f 149//194 163//194 162//194 147//194
f 151//195 164//195 163//195 149//195
f 165//196 164//196 151//196
f 153//197 166//197 165//197
f 135//198 155//198 153//198
f 156//199 168//199 167//199
f 169//200 168//200 156//200
f 157//201 170//201 169//201
f 159//202 171//202 157//202
f 160//203 172//203 171//203 159//203
f 161//204 173//204 172//204 160//204
f 162//205 174//205 173//205 161//205
f 163//206 175//206 174//206 162//206
f 164//207 175//207 163//207
f 166//208 176//208 165//208
f 155//209 167//209 176//209
f 168//210 177//210 167//210
f 170//211 178//211 168//211
f 180//212 179//212 170//212
f 171//213 181//213 180//213
f 172//214 182//214 181//214 171//214
f 173//215 183//215 182//215 172//215
f 174//216 184//216 183//216 173//216
f 175//217 185//217 184//217 174//217
f 186//218 185//218 175//218
f 187//219 186//219 164//219
f 176//220 188//220 187//220
f 167//221 177//221 176//221
f 178//222 190//222 189//222
f 191//223 190//223 178//223
f 179//224 192//224 191//224
f 181//225 193//225 179//225
f 182//226 194//226 193//226 181//226
f 183//227 195//227 194//227 182//227
f 184//228 196//228 195//228 183//228
f 185//229 197//229 196//229 184//229
f 186//230 197//230 185//230
f 188//231 198//231 187//231
f 177//232 189//232 198//232
f 190//233 199//233 189//233
f 191//234 201//234 200//234 190//234
f 192//235 202//235 191//235
f 193//236 203//236 192//236
f 194//237 204//237 203//237 193//237
f 195//238 205//238 204//238 194//238
f 196//239 206//239 205//239 195//239
f 197//240 207//240 206//240 196//240
f 208//241 207//241 197//241
f 187//242 209//242 186//242
f 198//243 209//243 187//243
f 189//244 210//244 198//244
f 200//245 212//245 211//245
f 213//246 212//246 200//246
f 202//247 214//247 213//247
f 203//248 215//248 202//248
f 204//249 216//249 215//249 203//249
f 205//250 217//250 216//250 204//250
f 206//251 218//251 217//251 205//251
f 207//252 219//252 218//252 206//252
f 208//253 219//253 207//253
f 210//254 220//254 209//254
f 211//255 220//255 210//255
f 222//256 221//256 211//256
f 213//257 223//257 222//257 212//257
f 214//258 224//258 223//258
f 215//259 225//259 214//259
f 216//260 226//260 225//260 215//260
f 217//261 227//261 226//261 216//261
f 218//262 228//262 227//262 217//262
f 219//263 229//263 228//263 218//263
f 230//264 229//264 219//264
f 209//265 231//265 230//265
f 220//266 232//266 231//266 209//266
f 211//267 232//267 220//267
f 222//268 234//268 233//268
f 223//269 234//269 222//269
f 224//270 235//270 223//270
f 225//271 236//271 224//271
f 226//272 237//272 236//272 225//272
f 227//273 238//273 237//273 226//273
f 228//274 239//274 238//274 227//274
f 229//275 240//275 239//275 228//275
f 230//276 240//276 229//276
f 232//277 241//277 231//277
f 233//278 241//278 232//278
f 234//279 242//279 233//279
f 244//280 243//280 234//280
f 246//281 245//281 235//281
f 236//282 247//282 245//282
f 237//283 248//283 247//283 236//283
f 238//284 249//284 248//284 237//284
f 239//285 250//285 249//285 238//285
f 240//286 251//286 250//286 239//286
f 252//287 251//287 240//287
f 231//288 253//288 252//288
f 241//289 254//289 231//289
f 233//290 254//290 241//290
f 243//291 256//291 255//291
f 244//292 257//292 256//292 243//292
f 245//293 257//293 244//293
f 247//294 258//294 245//294
f 248//295 259//295 258//295 247//295
f 249//296 260//296 259//296 248//296
f 250//297 261//297 260//297 249//297
f 251//298 262//298 261//298 250//298
f 252//299 262//299 251//299
f 254//300 263//300 253//300
f 255//301 263//301 254//301
f 256//302 264//302 255//302
f 257//303 137//303 256//303
f 265//304 140//304 257//304
f 258//305 142//305 265//305
f 259//306 144//306 142//306 258//306
f 260//307 146//307 144//307 259//307
f 261//308 148//308 146//308 260//308
f 262//309 150//309 148//309 261//309
f 151//310 150//310 262//310
f 253//311 151//311 252//311
f 263//312 154//312 253//312
f 264//313 154//313 263//313
f 190//314 200//314 199//314
f 211//315 212//315 222//315
f 223//316 213//316 214//316
f 202//317 201//317 191//317
f 168//318 178//318 177//318
f 179//319 266//319 170//319
f 136//320 156//320 155//320
f 157//321 169//321 139//321
f 256//322 137//322 264//322
f 140//323 138//323 257//323
f 234//324 243//324 242//324
f 245//325 244//325 235//325
f 151//326 152//326 165//326
f 165//327 152//327 153//327
f 253//328 152//328 151//328
f 154//329 152//329 253//329
f 164//330 165//330 187//330
f 187//331 165//331 176//331
f 175//332 164//332 186//332
f 197//333 186//333 208//333
f 209//334 208//334 186//334
f 219//335 208//335 230//335
f 230//336 208//336 209//336
f 240//337 230//337 252//337
f 252//338 230//338 231//338
f 262//339 252//339 151//339
f 254//340 253//340 231//340
f 170//341 266//341 178//341
f 178//342 266//342 191//342
f 191//343 266//343 179//343
f 200//344 201//344 213//344
f 213//345 201//345 202//345
f 224//346 246//346 235//346
f 236//347 246//347 224//347
f 245//348 246//348 236//348
f 225//349 224//349 214//349
f 215//350 214//350 202//350
f 203//351 202//351 192//351
f 193//352 192//352 179//352
f 181//353 179//353 180//353
f 157//354 180//354 170//354
f 171//355 180//355 157//355
f 169//356 170//356 168//356
f 159//357 157//357 158//357
f 139//358 169//358 156//358
f 140//359 158//359 139//359
f 141//360 158//360 140//360
f 138//361 139//361 136//361
f 142//362 140//362 265//362
f 257//363 138//363 137//363
f 245//364 265//364 257//364
f 258//365 265//365 245//365
f 223//366 235//366 234//366
f 234//367 235//367 244//367
f 233//368 242//368 254//368
f 255//369 242//369 243//369
f 254//370 242//370 255//370
f 211//371 221//371 232//371
f 233//372 221//372 222//372
f 232//373 221//373 233//373
f 189//374 199//374 210//374
f 211//375 199//375 200//375
f 210//376 199//376 211//376
f 198//377 210//377 209//377
f 177//378 188//378 176//378
f 198//379 188//379 177//379
f 189//380 177//380 178//380
f 155//381 166//381 153//381
f 176//382 166//382 155//382
f 167//383 155//383 156//383
f 263//384 255//384 264//384
f 135//385 264//385 137//385
f 154//386 264//386 135//386
